<svg width="274" height="274" viewBox="0 0 274 274" fill="none" xmlns="http://www.w3.org/2000/svg">
<path d="M136.75 273.5C212.275 273.5 273.5 212.275 273.5 136.75C273.5 61.2251 212.275 0 136.75 0C61.2251 0 0 61.2251 0 136.75C0 212.275 61.2251 273.5 136.75 273.5Z" fill="#0088CC"/>
<path fill-rule="evenodd" clip-rule="evenodd" d="M98.6553 90.3529H175.333C178.264 90.3529 180.705 90.8414 183.636 92.3063C187.055 93.7717 189.008 96.2135 189.985 98.1668C189.985 98.1668 189.985 98.6553 190.474 98.6553C191.939 101.097 192.915 104.027 192.915 107.446C192.915 110.376 192.427 113.307 190.474 116.237L142.123 199.264C141.146 201.217 139.192 202.194 136.751 202.194C134.797 202.194 132.843 201.217 131.379 199.264L84.0034 116.237C83.0265 114.284 81.0731 111.842 81.0731 107.935C80.5846 104.516 81.5616 101.586 83.0265 98.6553C84.4919 95.725 86.9337 93.2832 90.3524 92.3063C93.2833 90.3529 96.702 90.3529 98.6553 90.3529ZM130.89 102.074H98.6553C96.702 102.074 95.7251 102.074 95.2366 102.562C94.2596 103.051 93.7712 103.539 93.2833 104.516C92.7948 105.004 92.7948 105.981 92.7948 106.958C92.7948 107.446 93.2832 107.935 94.2602 109.888L130.89 173.379V102.074ZM142.611 102.074V173.868L179.728 109.888C180.217 108.912 180.217 107.935 180.217 106.958C180.217 105.981 180.217 105.005 179.728 104.516C179.24 104.028 179.24 103.539 178.751 103.539L178.263 103.051C177.286 102.563 176.31 102.562 174.844 102.562H142.61L142.611 102.074Z" fill="white"/>
</svg>
